<?xml version="1.0" ?><svg id="Layer_1" style="enable-background:new 0 0 120 120;" version="1.1" viewBox="0 0 120 120" xml:space="preserve" xmlns="http://www.w3.org/2000/svg" xmlns:xlink="http://www.w3.org/1999/xlink"><style type="text/css">
	.st0{fill:#FFCC3E;}
	.st1{fill:#474747;}
	.st2{fill:#EFEFEF;}
	.st3{fill:#D3D3D3;}
</style><g><g><path class="st0" d="M85.4,61.1c0-15-13-26.9-28.3-25.2C45.4,37.2,36,46.7,34.8,58.4c-1,10.3,4.1,19.5,12.1,24.4    c0.7,0.4,1.1,1.2,1.1,2v9.1h24.1v-9.1c0-0.8,0.4-1.6,1.1-2C80.5,78.4,85.4,70.3,85.4,61.1z"/><path class="st1" d="M60,104.2L60,104.2c3.5,0,6.3-2.8,6.3-6.3v0c0-3.5-2.8-6.3-6.3-6.3h0c-3.5,0-6.3,2.8-6.3,6.3v0    C53.7,101.4,56.5,104.2,60,104.2z"/><path class="st2" d="M50.1,99.2h19.8c1.2,0,2.2-1,2.2-2.2V86.6H47.9V97C47.9,98.2,48.9,99.2,50.1,99.2z"/><g><rect class="st3" height="1" width="24.1" x="47.9" y="89.6"/><rect class="st3" height="1" width="24.1" x="47.9" y="92.4"/><rect class="st3" height="1" width="24.1" x="47.9" y="95.2"/></g></g><g><path class="st0" d="M60,15.8c-1,0-1.9,0.8-1.9,1.9v10.2c0,1,0.8,1.9,1.9,1.9s1.9-0.8,1.9-1.9V17.7C61.9,16.6,61,15.8,60,15.8z"/><path class="st0" d="M102.8,58.6H92.6c-1,0-1.9,0.8-1.9,1.9s0.8,1.9,1.9,1.9h10.2c1,0,1.9-0.8,1.9-1.9S103.8,58.6,102.8,58.6z"/><path class="st0" d="M29.3,60.5c0-1-0.8-1.9-1.9-1.9H17.2c-1,0-1.9,0.8-1.9,1.9s0.8,1.9,1.9,1.9h10.2    C28.5,62.4,29.3,61.5,29.3,60.5z"/><path class="st0" d="M84.4,38.8l7.2-7.2c0.7-0.7,0.7-1.9,0-2.7c-0.7-0.7-1.9-0.7-2.7,0l-7.2,7.2c-0.7,0.7-0.7,1.9,0,2.7    C82.4,39.5,83.6,39.5,84.4,38.8z"/><path class="st0" d="M35.6,82.2l-7.2,7.2c-0.7,0.7-0.7,1.9,0,2.7c0.7,0.7,1.9,0.7,2.7,0l7.2-7.2c0.7-0.7,0.7-1.9,0-2.7    C37.6,81.4,36.4,81.4,35.6,82.2z"/><path class="st0" d="M31.1,28.9c-0.7-0.7-1.9-0.7-2.7,0c-0.7,0.7-0.7,1.9,0,2.7l7.2,7.2c0.7,0.7,1.9,0.7,2.7,0    c0.7-0.7,0.7-1.9,0-2.7L31.1,28.9z"/><path class="st0" d="M84.4,82.2c-0.7-0.7-1.9-0.7-2.7,0c-0.7,0.7-0.7,1.9,0,2.7l7.2,7.2c0.7,0.7,1.9,0.7,2.7,0    c0.7-0.7,0.7-1.9,0-2.7L84.4,82.2z"/></g></g></svg>